<svg width="128" height="128" viewBox="0 0 128 128" fill="none" xmlns="http://www.w3.org/2000/svg">
<rect width="128" height="128" fill="white"/>
<path fill-rule="evenodd" clip-rule="evenodd" d="M13 64.4358L23.2156 54.2182V74.6534L13 64.4358ZM62.4261 15L73.4934 26.0694H51.3589L62.4261 15ZM111.852 64.4358L101.639 74.651V54.2206L111.852 64.4358ZM41.8046 30.3392C33.8978 30.3392 27.488 36.7489 27.488 44.6557V85.526C27.488 93.4328 33.8978 99.8425 41.8046 99.8425H48.6923L62.4272 113L75.9412 99.8425H83.0499C90.9567 99.8425 97.3664 93.4328 97.3664 85.526V44.6557C97.3664 36.7489 90.9567 30.3392 83.0499 30.3392H41.8046Z" fill="#387DFF"/>
<path d="M40.2715 73.8008C40.2715 73.8008 49.3572 85.7312 61.9914 85.7312C74.6256 85.7312 84.5846 73.8008 84.5846 73.8008" stroke="white" stroke-width="5.11305" stroke-linecap="round"/>
</svg>
